<svg width="206" height="52" viewBox="0 0 206 52" fill="none" xmlns="http://www.w3.org/2000/svg">
<circle cx="103" cy="26" r="26" fill="#A2A3A5"/>
<path d="M99.6697 25.7014C100.448 27.2919 101.737 28.5753 103.331 29.346C103.448 29.4013 103.577 29.4252 103.705 29.4155C103.834 29.4058 103.958 29.3627 104.065 29.2905L106.412 27.7254C106.516 27.6562 106.635 27.6139 106.759 27.6025C106.884 27.5911 107.009 27.6109 107.123 27.66L111.514 29.5419C111.664 29.6052 111.788 29.7154 111.869 29.8556C111.95 29.9959 111.984 30.1588 111.964 30.3197C111.825 31.4057 111.296 32.4039 110.474 33.1273C109.652 33.8508 108.595 34.2499 107.5 34.25C104.118 34.25 100.875 32.9067 98.4844 30.5156C96.0933 28.1245 94.75 24.8815 94.75 21.5C94.7501 20.4051 95.1492 19.3479 95.8726 18.5261C96.5961 17.7044 97.5943 17.1745 98.6803 17.0357C98.8412 17.0162 99.004 17.0496 99.1443 17.1307C99.2846 17.2118 99.3947 17.3364 99.4581 17.4855L101.342 21.8803C101.39 21.994 101.41 22.118 101.399 22.2412C101.389 22.3644 101.347 22.483 101.28 22.5865L99.7201 24.9696C99.6491 25.0768 99.6072 25.2006 99.5983 25.3288C99.5895 25.4571 99.614 25.5855 99.6697 25.7014V25.7014Z" stroke="white" stroke-linecap="round" stroke-linejoin="round"/>
<circle cx="26" cy="26" r="26" fill="#FC6969"/>
<path d="M16.25 19.625H28.25C29.0456 19.625 29.8087 19.9411 30.3713 20.5037C30.9339 21.0663 31.25 21.8294 31.25 22.625V31.625C31.25 31.8239 31.171 32.0147 31.0303 32.1553C30.8897 32.296 30.6989 32.375 30.5 32.375H18.5C17.7044 32.375 16.9413 32.0589 16.3787 31.4963C15.8161 30.9337 15.5 30.1706 15.5 29.375V20.375C15.5 20.1761 15.579 19.9853 15.7197 19.8447C15.8603 19.704 16.0511 19.625 16.25 19.625V19.625Z" stroke="white" stroke-linecap="round" stroke-linejoin="round"/>
<path d="M31.25 24.5L36.5 21.5V30.5L31.25 27.5" stroke="white" stroke-linecap="round" stroke-linejoin="round"/>
<circle opacity="0.5" cx="180" cy="26" r="26" fill="#C4C4C4"/>
<path d="M180 16.25H180C180.995 16.25 181.948 16.6451 182.652 17.3483C183.355 18.0516 183.75 19.0054 183.75 20V26C183.75 26.9946 183.355 27.9484 182.652 28.6517C181.948 29.3549 180.995 29.75 180 29.75H180C179.508 29.75 179.02 29.653 178.565 29.4645C178.11 29.2761 177.697 28.9999 177.348 28.6517C177 28.3034 176.724 27.89 176.535 27.4351C176.347 26.9801 176.25 26.4925 176.25 26V20C176.25 19.0054 176.645 18.0516 177.348 17.3483C178.052 16.6451 179.005 16.25 180 16.25V16.25Z" stroke="white" stroke-linecap="round" stroke-linejoin="round"/>
<path d="M180 32.75V35.75" stroke="white" stroke-linecap="round" stroke-linejoin="round"/>
<path d="M186.709 26.75C186.524 28.4001 185.738 29.9243 184.5 31.0312C183.263 32.1381 181.66 32.75 180 32.75C178.34 32.75 176.737 32.1381 175.5 31.0312C174.262 29.9243 173.476 28.4001 173.291 26.75" stroke="white" stroke-linecap="round" stroke-linejoin="round"/>
</svg>
