<svg width="17" height="20" viewBox="0 0 17 20" fill="none" xmlns="http://www.w3.org/2000/svg">
<path d="M14.0475 19.1947C12.9627 20.2475 11.7658 20.0834 10.6249 19.587C9.41196 19.0806 8.3031 19.0486 7.02212 19.587C5.42689 20.2755 4.58024 20.0754 3.6195 19.1947C-1.80467 13.6104 -1.00405 5.10391 5.16069 4.78366C6.65584 4.86373 7.70264 5.6103 8.58332 5.67235C9.89233 5.40614 11.1453 4.64356 12.5464 4.74363C14.2297 4.87974 15.4886 5.54425 16.3293 6.73916C12.8666 8.82076 13.6872 13.3843 16.8677 14.6652C16.2312 16.3365 15.4146 17.9878 14.0455 19.2087L14.0475 19.1947ZM8.46323 4.72362C8.3011 2.24172 10.3127 0.200153 12.6264 0C12.9447 2.86219 10.0244 5.00383 8.46323 4.72362Z" fill="#101623"/>
</svg>
