<svg width="15" height="21" viewBox="0 0 15 21" fill="none" xmlns="http://www.w3.org/2000/svg">
<path d="M7.38468 0.512195H7.38469C8.40351 0.512195 9.3806 0.91692 10.101 1.63733C10.8214 2.35775 11.2262 3.33484 11.2262 4.35366V10.5C11.2262 11.5188 10.8214 12.4959 10.101 13.2163C9.3806 13.9367 8.40351 14.3415 7.38469 14.3415H7.38468C6.88021 14.3415 6.38069 14.2421 5.91462 14.049C5.44855 13.856 5.02507 13.573 4.66836 13.2163C4.31165 12.8596 4.02869 12.4361 3.83564 11.9701C3.64259 11.504 3.54322 11.0045 3.54322 10.5V4.35365C3.54322 3.33483 3.94795 2.35774 4.66836 1.63733C5.38877 0.916919 6.36586 0.512195 7.38468 0.512195V0.512195Z" stroke="white" stroke-linecap="round" stroke-linejoin="round"/>
<path d="M7.38469 17.4146V20.4878" stroke="white" stroke-linecap="round" stroke-linejoin="round"/>
<path d="M14.2571 11.2683C14.068 12.9587 13.2625 14.52 11.9947 15.6539C10.7268 16.7878 9.08559 17.4146 7.38468 17.4146C5.68378 17.4146 4.04254 16.7878 2.77471 15.6539C1.50688 14.52 0.701399 12.9586 0.512258 11.2683" stroke="white" stroke-linecap="round" stroke-linejoin="round"/>
</svg>
