<svg width="21" height="22" viewBox="0 0 21 22" fill="none" xmlns="http://www.w3.org/2000/svg">
<mask id="mask0_1_2233" style="mask-type:alpha" maskUnits="userSpaceOnUse" x="0" y="0" width="21" height="22">
<path fill-rule="evenodd" clip-rule="evenodd" d="M0 0H20.9717V22H0V0Z" fill="white"/>
</mask>
<g mask="url(#mask0_1_2233)">
<path fill-rule="evenodd" clip-rule="evenodd" d="M11.9864 14.6201C13.2182 14.6201 14.2207 15.6155 14.2207 16.839V19.9858C14.2207 20.2487 14.4315 20.4595 14.7015 20.4656H16.6514C18.188 20.4656 19.4371 19.2318 19.4371 17.7157V8.79092C19.4299 8.26918 19.1813 7.77813 18.7547 7.45179L12.01 2.07276C11.1046 1.35563 9.83811 1.35563 8.92967 2.07481L2.23095 7.44975C1.78799 7.78632 1.53939 8.27737 1.53428 8.80831V17.7157C1.53428 19.2318 2.78338 20.4656 4.31995 20.4656H6.28824C6.56548 20.4656 6.79054 20.2456 6.79054 19.9756C6.79054 19.9162 6.7977 19.8569 6.80998 19.8006V16.839C6.80998 15.6226 7.8064 14.6283 9.0289 14.6201H11.9864ZM16.6514 22.0001H14.6831C13.5558 21.9735 12.6862 21.0886 12.6862 19.9858V16.839C12.6862 16.4615 12.3721 16.1546 11.9864 16.1546H9.03402C8.65653 16.1566 8.3445 16.4646 8.3445 16.839V19.9756C8.3445 20.0523 8.33428 20.126 8.31279 20.1955C8.20231 21.2083 7.33683 22.0001 6.28824 22.0001H4.31995C1.93735 22.0001 -0.00024976 20.0779 -0.00024976 17.7157V8.80115C0.00998042 7.78427 0.478522 6.85333 1.28773 6.24054L7.97315 0.874811C9.44527 -0.291429 11.4964 -0.291429 12.9655 0.872765L19.699 6.24361C20.4898 6.84617 20.9583 7.77507 20.9716 8.77967V17.7157C20.9716 20.0779 19.034 22.0001 16.6514 22.0001Z" fill="#ADADAD"/>
</g>
</svg>
