<svg width="58" height="58" viewBox="0 0 58 58" fill="none" xmlns="http://www.w3.org/2000/svg">
<path d="M12.0833 12.0833H26.5833C27.9125 12.0833 29 10.9958 29 9.66667C29 8.3375 27.9125 7.25 26.5833 7.25H12.0833C9.425 7.25 7.25 9.425 7.25 12.0833V45.9167C7.25 48.575 9.425 50.75 12.0833 50.75H26.5833C27.9125 50.75 29 49.6625 29 48.3333C29 47.0042 27.9125 45.9167 26.5833 45.9167H12.0833V12.0833Z" fill="#FF5C5C"/>
<path d="M49.9042 28.1537L43.1617 21.4112C42.9936 21.2385 42.7778 21.1199 42.542 21.0706C42.3061 21.0212 42.0609 21.0434 41.8377 21.1342C41.6145 21.2251 41.4235 21.3804 41.2891 21.5804C41.1547 21.7805 41.0831 22.016 41.0833 22.257V26.5828H24.1667C22.8375 26.5828 21.75 27.6703 21.75 28.9995C21.75 30.3287 22.8375 31.4162 24.1667 31.4162H41.0833V35.742C41.0833 36.8295 42.3883 37.3612 43.1375 36.5878L49.88 29.8453C50.3633 29.3862 50.3633 28.6128 49.9042 28.1537Z" fill="#FF5C5C"/>
</svg>
