<svg width="20" height="20" viewBox="0 0 20 20" fill="none" xmlns="http://www.w3.org/2000/svg">
<path d="M0.750115 0.750115L2.8301 1.11011L3.79309 12.583C3.87009 13.52 4.65308 14.239 5.59307 14.236H16.502C17.399 14.238 18.16 13.578 18.287 12.69L19.2359 6.13207C19.3419 5.39907 18.8329 4.71908 18.101 4.61308C18.037 4.60408 3.16409 4.59908 3.16409 4.59908" stroke="#101623" stroke-width="1.5" stroke-linecap="round" stroke-linejoin="round"/>
<path d="M12.125 8.29497H14.898" stroke="#101623" stroke-width="1.5" stroke-linecap="round" stroke-linejoin="round"/>
<path fill-rule="evenodd" clip-rule="evenodd" d="M5.15437 17.7026C5.45536 17.7026 5.69836 17.9466 5.69836 18.2466C5.69836 18.5476 5.45536 18.7916 5.15437 18.7916C4.85337 18.7916 4.61037 18.5476 4.61037 18.2466C4.61037 17.9466 4.85337 17.7026 5.15437 17.7026Z" fill="#101623" stroke="#101623" stroke-width="1.5" stroke-linecap="round" stroke-linejoin="round"/>
<path fill-rule="evenodd" clip-rule="evenodd" d="M16.4346 17.7026C16.7356 17.7026 16.9796 17.9466 16.9796 18.2466C16.9796 18.5476 16.7356 18.7916 16.4346 18.7916C16.1336 18.7916 15.8906 18.5476 15.8906 18.2466C15.8906 17.9466 16.1336 17.7026 16.4346 17.7026Z" fill="#101623" stroke="#101623" stroke-width="1.5" stroke-linecap="round" stroke-linejoin="round"/>
</svg>
