<svg width="20" height="19" viewBox="0 0 20 19" fill="none" xmlns="http://www.w3.org/2000/svg">
<path fill-rule="evenodd" clip-rule="evenodd" d="M13.8498 0.00015967C14.4808 0.00015967 15.1108 0.0891585 15.7098 0.290156C19.4008 1.49014 20.7307 5.54009 19.6198 9.08004C18.9898 10.889 17.9598 12.54 16.6108 13.889C14.6798 15.759 12.5609 17.4189 10.2799 18.8489L10.0299 18.9999L9.76989 18.8389C7.48092 17.4189 5.34995 15.759 3.40097 13.879C2.06099 12.53 1.03 10.889 0.390012 9.08004C-0.739974 5.54009 0.590009 1.49014 4.32096 0.269156C4.61096 0.169157 4.90995 0.0991584 5.20995 0.0601589H5.32995C5.61094 0.0191594 5.88994 0.00015967 6.16994 0.00015967H6.27994C6.90993 0.0191594 7.51992 0.129158 8.11091 0.330155H8.16991C8.20991 0.349155 8.23991 0.370155 8.25991 0.389155C8.48091 0.460154 8.68991 0.540153 8.8899 0.650151L9.2699 0.820149C9.36172 0.86912 9.46478 0.943947 9.55385 1.00862C9.61029 1.04959 9.66111 1.08649 9.69989 1.11015C9.71621 1.11977 9.73279 1.12945 9.74951 1.13921C9.83526 1.18927 9.92458 1.2414 9.99989 1.29914C11.1109 0.450154 12.4599 -0.0098402 13.8498 0.00015967ZM16.5098 7.20007C16.9198 7.18907 17.2698 6.86007 17.2998 6.43908V6.32008C17.3298 4.9191 16.4808 3.65011 15.1898 3.16012C14.7798 3.01912 14.3298 3.24012 14.1798 3.66011C14.0398 4.08011 14.2598 4.5401 14.6798 4.6891C15.3208 4.9291 15.7498 5.56009 15.7498 6.25908V6.29008C15.7308 6.51908 15.7998 6.74007 15.9398 6.91007C16.0798 7.08007 16.2898 7.17907 16.5098 7.20007Z" fill="#FC6969"/>
</svg>
