<svg width="21" height="20" viewBox="0 0 21 20" fill="none" xmlns="http://www.w3.org/2000/svg">
<path fill-rule="evenodd" clip-rule="evenodd" d="M20.2369 13.1214H16.118C14.1878 13.1214 12.6168 11.5514 12.6157 9.62223C12.6157 7.691 14.1868 6.11997 16.118 6.11896H20.2369C20.6581 6.11896 21 6.46084 21 6.88209C21 7.30333 20.6581 7.64522 20.2369 7.64522H16.118C15.0283 7.64623 14.142 8.53248 14.142 9.62122C14.142 10.7089 15.0293 11.5952 16.118 11.5952H20.2369C20.6581 11.5952 21 11.9371 21 12.3583C21 12.7796 20.6581 13.1214 20.2369 13.1214Z" fill="#227DDE"/>
<path fill-rule="evenodd" clip-rule="evenodd" d="M16.5837 10.3211H16.2662C15.845 10.3211 15.5031 9.97926 15.5031 9.55801C15.5031 9.13676 15.845 8.79488 16.2662 8.79488H16.5837C17.0049 8.79488 17.3468 9.13676 17.3468 9.55801C17.3468 9.97926 17.0049 10.3211 16.5837 10.3211Z" fill="#227DDE"/>
<mask id="mask0_1_1988" style="mask-type:alpha" maskUnits="userSpaceOnUse" x="0" y="0" width="21" height="20">
<path fill-rule="evenodd" clip-rule="evenodd" d="M0 0H20.9999V19.5086H0V0Z" fill="white"/>
</mask>
<g mask="url(#mask0_1_1988)">
<path fill-rule="evenodd" clip-rule="evenodd" d="M6.10264 1.52626C3.57922 1.52626 1.52589 3.57959 1.52589 6.10301V13.4057C1.52589 15.9291 3.57922 17.9824 6.10264 17.9824H14.898C17.4214 17.9824 19.4737 15.9291 19.4737 13.4057V6.10301C19.4737 3.57959 17.4214 1.52626 14.898 1.52626H6.10264ZM14.898 19.5087H6.10264C2.73774 19.5087 -0.000372622 16.7706 -0.000372622 13.4057V6.10301C-0.000372622 2.73709 2.73774 0 6.10264 0H14.898C18.2629 0 21 2.73709 21 6.10301V13.4057C21 16.7706 18.2629 19.5087 14.898 19.5087Z" fill="#227DDE"/>
</g>
<path fill-rule="evenodd" clip-rule="evenodd" d="M10.8717 6.1438H5.37818C4.95693 6.1438 4.61505 5.80191 4.61505 5.38067C4.61505 4.95942 4.95693 4.61754 5.37818 4.61754H10.8717C11.293 4.61754 11.6348 4.95942 11.6348 5.38067C11.6348 5.80191 11.293 6.1438 10.8717 6.1438Z" fill="#227DDE"/>
</svg>
