<svg width="30" height="32" viewBox="0 0 30 32" fill="none" xmlns="http://www.w3.org/2000/svg">
<path d="M28.7295 5.85117C27.8772 3.19586 26.0602 1.24711 23.7444 0.504482C19.4749 -0.864643 15.9641 0.895732 14.6238 1.73848C13.2833 0.89567 9.77238 -0.864643 5.50313 0.504482C3.18663 1.24729 1.36944 3.19679 0.517381 5.85311C-0.603057 9.34611 0.120506 13.303 2.45313 16.4378C3.46726 17.8009 4.15294 19.3035 4.49107 20.904C4.64126 21.6152 4.77182 22.3975 4.87907 23.2295C5.20113 25.7281 5.67544 27.7335 6.28894 29.1899C7.02382 30.9346 7.97188 31.8768 9.10676 31.9903C9.17138 31.9967 9.23519 31.9999 9.29863 31.9999C10.4156 31.9999 11.3492 30.9974 12.0754 29.0159C12.6124 27.5511 13.0356 25.5883 13.2673 23.4889C13.3968 22.315 13.6998 21.3645 14.1433 20.7402C14.3021 20.5167 14.5323 20.4925 14.6238 20.4925C14.7154 20.4925 14.9456 20.5167 15.1044 20.7402C15.5479 21.3645 15.8508 22.315 15.9803 23.489C16.212 25.5883 16.6353 27.5512 17.1722 29.016C17.8984 30.9975 18.8319 32 19.949 32C20.0124 32 20.0764 31.9967 20.1409 31.9904C21.2758 31.8769 22.2238 30.9347 22.9587 29.19C23.5721 27.7335 24.0465 25.7282 24.3686 23.2296C24.4758 22.3975 24.6064 21.6152 24.7565 20.9045C25.0944 19.3052 25.7811 17.801 26.7975 16.4339C29.1281 13.2991 29.8503 9.34292 28.7295 5.85117ZM25.2966 15.318C24.118 16.9033 23.3206 18.6528 22.9266 20.5179C22.7661 21.2772 22.6272 22.1091 22.5136 22.9905C21.858 28.0764 20.6364 30.0395 19.9665 30.1279C19.8258 30.0781 19.3446 29.6155 18.8272 28.0849C18.3887 26.7879 18.0379 25.0829 17.8394 23.2838C17.6727 21.773 17.2655 20.5528 16.6291 19.657C16.1688 19.009 15.4191 18.6222 14.6238 18.6222C13.8284 18.6222 13.0787 19.009 12.6183 19.6571C11.9819 20.5529 11.5748 21.7731 11.4081 23.2839C11.2095 25.0829 10.8588 26.788 10.4203 28.085C9.90294 29.6155 9.42163 30.0782 9.28094 30.128C8.61107 30.0396 7.38944 28.0764 6.73388 22.9906C6.62025 22.1094 6.48132 21.2773 6.32082 20.5176C5.92651 18.651 5.13001 16.9028 3.95351 15.3215C1.98057 12.6699 1.36188 9.34392 2.29832 6.42448C2.96363 4.3503 4.33988 2.84173 6.07419 2.28561C7.90507 1.69842 9.79301 1.73604 11.6855 2.39729C13.131 2.90242 14.0381 3.60111 14.0448 3.60636L14.6224 4.05792L15.2004 3.60811C15.2094 3.60111 16.1164 2.90242 17.5619 2.39729C19.4544 1.73598 21.3423 1.69842 23.1733 2.28561H23.1733C24.9071 2.84154 26.2832 4.34954 26.9487 6.42286C27.8854 9.34117 27.2678 12.6665 25.2966 15.318Z" fill="#227DDE"/>
</svg>
