<svg width="18" height="18" viewBox="0 0 18 18" fill="none" xmlns="http://www.w3.org/2000/svg">
<path d="M8.39626 0.817332H5.14034C2.46262 0.817332 0.783721 2.71307 0.783721 5.39687V12.6367C0.783721 15.3205 2.45479 17.2163 5.14034 17.2163H12.8243C15.5107 17.2163 17.1818 15.3205 17.1818 12.6367V9.12912" stroke="#227DDE" stroke-width="1.5" stroke-linecap="round" stroke-linejoin="round"/>
<path fill-rule="evenodd" clip-rule="evenodd" d="M6.07602 7.8986L12.5835 1.3911C13.3942 0.581259 14.7083 0.581259 15.519 1.3911L16.5787 2.45087C17.3895 3.26158 17.3895 4.57649 16.5787 5.38634L10.0399 11.9252C9.68549 12.2796 9.20481 12.479 8.70323 12.479H5.44121L5.52306 9.18738C5.53525 8.70322 5.73293 8.24169 6.07602 7.8986Z" stroke="#227DDE" stroke-width="1.5" stroke-linecap="round" stroke-linejoin="round"/>
<path d="M11.5946 2.39651L15.5707 6.37259" stroke="#227DDE" stroke-width="1.5" stroke-linecap="round" stroke-linejoin="round"/>
</svg>
