<svg width="22" height="22" viewBox="0 0 22 22" fill="none" xmlns="http://www.w3.org/2000/svg">
<mask id="mask0_1_1974" style="mask-type:alpha" maskUnits="userSpaceOnUse" x="0" y="0" width="22" height="22">
<path fill-rule="evenodd" clip-rule="evenodd" d="M0 0H21.9991V21.9999H0V0Z" fill="white"/>
</mask>
<g mask="url(#mask0_1_1974)">
<path fill-rule="evenodd" clip-rule="evenodd" d="M5.22872 19.1147C5.82238 19.1147 6.38226 19.3399 6.97489 19.5784C10.6054 21.257 14.8992 20.4934 17.6965 17.6971C21.3874 14.0042 21.3874 7.99697 17.6965 4.30606C15.9094 2.51895 13.5328 1.53532 11.0025 1.53532C8.47132 1.53532 6.09362 2.51997 4.30753 4.30708C1.50915 7.10341 0.747636 11.3972 2.4109 14.9929C2.65041 15.5855 2.88173 16.1628 2.88173 16.7626C2.88173 17.3614 2.676 17.9643 2.49483 18.4965C2.34539 18.9346 2.11919 19.5958 2.26453 19.7411C2.4068 19.8885 3.07211 19.6562 3.51121 19.5057C4.03834 19.3256 4.63609 19.1188 5.22872 19.1147ZM10.977 22.0001C9.41298 22.0001 7.83877 21.6695 6.36588 20.9878C5.9319 20.8138 5.52555 20.65 5.23384 20.65C4.89812 20.6521 4.44673 20.8077 4.0107 20.9581C3.11612 21.2652 2.0025 21.648 1.17855 20.8271C0.357665 20.0052 0.736377 18.8947 1.04139 18.0011C1.19186 17.561 1.34641 17.1065 1.34641 16.7626C1.34641 16.4801 1.21028 16.1198 1.00148 15.6009C-0.915627 11.4606 -0.0292353 6.47086 3.22257 3.2211C5.29832 1.14432 8.06087 0 11.0015 0C13.9422 0 16.7057 1.1433 18.7815 3.22008C23.0722 7.51078 23.0722 14.4914 18.7815 18.7821C16.6781 20.8865 13.846 22.0001 10.977 22.0001Z" fill="#227DDE"/>
</g>
<path fill-rule="evenodd" clip-rule="evenodd" d="M15.0423 12.449C14.4773 12.449 14.0147 11.9915 14.0147 11.4254C14.0147 10.8594 14.4681 10.4019 15.0331 10.4019H15.0423C15.6073 10.4019 16.0659 10.8594 16.0659 11.4254C16.0659 11.9915 15.6073 12.449 15.0423 12.449Z" fill="#227DDE"/>
<path fill-rule="evenodd" clip-rule="evenodd" d="M10.9391 12.449C10.3741 12.449 9.91148 11.9915 9.91148 11.4254C9.91148 10.8594 10.3639 10.4019 10.9299 10.4019H10.9391C11.5041 10.4019 11.9627 10.8594 11.9627 11.4254C11.9627 11.9915 11.5041 12.449 10.9391 12.449Z" fill="#227DDE"/>
<path fill-rule="evenodd" clip-rule="evenodd" d="M6.83557 12.449C6.27057 12.449 5.80793 11.9915 5.80793 11.4254C5.80793 10.8594 6.26136 10.4019 6.82635 10.4019H6.83557C7.40056 10.4019 7.85911 10.8594 7.85911 11.4254C7.85911 11.9915 7.40056 12.449 6.83557 12.449Z" fill="#227DDE"/>
</svg>
