<svg width="26" height="27" viewBox="0 0 26 27" fill="none" xmlns="http://www.w3.org/2000/svg">
<path d="M8.96904 25.3558V21.2156C8.96902 20.1664 9.82216 19.3141 10.8789 19.3075H14.759C15.8205 19.3075 16.681 20.1618 16.681 21.2156V25.3439C16.6809 26.2538 17.4204 26.9934 18.337 27H20.9842C22.2205 27.0031 23.4073 26.5178 24.2827 25.651C25.158 24.7841 25.65 23.6071 25.65 22.3797V10.6189C25.65 9.62737 25.2073 8.68686 24.4412 8.05073L15.448 0.910262C13.876 -0.338685 11.6308 -0.298339 10.1053 1.00627L1.30547 8.05073C0.5032 8.66811 0.0236956 9.61141 0 10.6189V22.3677C0 24.926 2.08897 27 4.66583 27H7.25259C7.69388 27.0032 8.11821 26.8313 8.43139 26.5227C8.74457 26.214 8.9207 25.794 8.92069 25.3558H8.96904Z" fill="#227DDE"/>
</svg>
