<svg width="19" height="12" viewBox="0 0 19 12" fill="none" xmlns="http://www.w3.org/2000/svg">
<path d="M13.2632 3.15789V10.7368C13.2628 11.0717 13.1296 11.3928 12.8928 11.6296C12.656 11.8664 12.3349 11.9996 12 12H3.15789C2.32066 11.999 1.518 11.666 0.925984 11.074C0.333971 10.482 0.000957822 9.67934 0 8.84211V1.26316C0.000383004 0.928265 0.133588 0.607199 0.370393 0.370393C0.607198 0.133588 0.928265 0.000383004 1.26316 0H10.1053C10.9425 0.000957822 11.7452 0.333971 12.3372 0.925984C12.9292 1.518 13.2622 2.32066 13.2632 3.15789ZM18.6328 1.66429C18.5371 1.60879 18.4285 1.57937 18.3179 1.579C18.2073 1.57862 18.0985 1.60729 18.0025 1.66214L14.8446 3.46667C14.7479 3.52191 14.6675 3.60173 14.6116 3.69803C14.5558 3.79434 14.5263 3.90371 14.5263 4.01506V7.98494C14.5263 8.09629 14.5558 8.20566 14.6116 8.30197C14.6675 8.39827 14.7479 8.47809 14.8446 8.53333L18.0025 10.3379C18.0985 10.3927 18.2073 10.4214 18.3179 10.421C18.4285 10.4207 18.5371 10.3912 18.6328 10.3357C18.7285 10.2802 18.8079 10.2005 18.8631 10.1046C18.9183 10.0088 18.9474 9.9001 18.9474 9.78947V2.21053C18.9474 2.0999 18.9183 1.99122 18.8631 1.89535C18.8079 1.79949 18.7285 1.71981 18.6328 1.66429Z" fill="#101623"/>
</svg>
