<svg width="20" height="20" viewBox="0 0 20 20" fill="none" xmlns="http://www.w3.org/2000/svg">
<path d="M0.750115 0.750237L2.8301 1.11023L3.79309 12.5831C3.87009 13.5201 4.65308 14.2391 5.59307 14.2361H16.502C17.399 14.2381 18.16 13.5781 18.287 12.6901L19.2359 6.13219C19.3419 5.39919 18.8329 4.7192 18.101 4.6132C18.037 4.6042 3.16409 4.5992 3.16409 4.5992" stroke="#227DDE" stroke-width="1.5" stroke-linecap="round" stroke-linejoin="round"/>
<path d="M12.125 8.29509H14.898" stroke="#227DDE" stroke-width="1.5" stroke-linecap="round" stroke-linejoin="round"/>
<path fill-rule="evenodd" clip-rule="evenodd" d="M5.15437 17.7027C5.45536 17.7027 5.69836 17.9467 5.69836 18.2467C5.69836 18.5477 5.45536 18.7917 5.15437 18.7917C4.85337 18.7917 4.61037 18.5477 4.61037 18.2467C4.61037 17.9467 4.85337 17.7027 5.15437 17.7027Z" fill="#227DDE" stroke="#227DDE" stroke-width="1.5" stroke-linecap="round" stroke-linejoin="round"/>
<path fill-rule="evenodd" clip-rule="evenodd" d="M16.4346 17.7027C16.7356 17.7027 16.9796 17.9467 16.9796 18.2467C16.9796 18.5477 16.7356 18.7917 16.4346 18.7917C16.1336 18.7917 15.8906 18.5477 15.8906 18.2467C15.8906 17.9467 16.1336 17.7027 16.4346 17.7027Z" fill="#227DDE" stroke="#227DDE" stroke-width="1.5" stroke-linecap="round" stroke-linejoin="round"/>
</svg>
