<svg width="16" height="16" viewBox="0 0 16 16" fill="none" xmlns="http://www.w3.org/2000/svg">
<path d="M15.2227 10.7455L11.4695 9.13702C11.2736 9.05266 11.0596 9.0187 10.8472 9.03822C10.6347 9.05773 10.4305 9.13012 10.2532 9.24877L8.2465 10.5864C7.02004 9.98992 6.02739 9.00164 5.42546 7.77784L5.42562 7.77768L6.75859 5.7409C6.87461 5.56408 6.94501 5.36126 6.96347 5.15057C6.98193 4.93989 6.94789 4.72791 6.86438 4.53361L5.2544 0.777213C5.14481 0.522228 4.95557 0.309603 4.71502 0.171173C4.47447 0.032742 4.19555 -0.0240455 3.92003 0.00931265C2.83734 0.148518 1.84237 0.677119 1.12097 1.49637C0.399577 2.31562 0.00110656 3.36947 0 4.46107C0 10.8237 5.1763 16 11.5389 16C12.6305 15.9989 13.6844 15.6004 14.5037 14.879C15.3229 14.1576 15.8515 13.1626 15.9907 12.0799C16.024 11.8044 15.9671 11.5255 15.8287 11.2849C15.6902 11.0444 15.4777 10.8552 15.2227 10.7455Z" fill="#101623"/>
</svg>
