<svg width="22" height="14" viewBox="0 0 22 14" fill="none" xmlns="http://www.w3.org/2000/svg">
<path d="M1.25 0.5H13.25C14.0456 0.5 14.8087 0.81607 15.3713 1.37868C15.9339 1.94129 16.25 2.70435 16.25 3.5V12.5C16.25 12.6989 16.171 12.8897 16.0303 13.0303C15.8897 13.171 15.6989 13.25 15.5 13.25H3.5C2.70435 13.25 1.94129 12.9339 1.37868 12.3713C0.816071 11.8087 0.5 11.0456 0.5 10.25V1.25C0.5 1.05109 0.579018 0.860322 0.71967 0.71967C0.860322 0.579018 1.05109 0.5 1.25 0.5V0.5Z" stroke="white" stroke-linecap="round" stroke-linejoin="round"/>
<path d="M16.25 5.375L21.5 2.375V11.375L16.25 8.375" stroke="white" stroke-linecap="round" stroke-linejoin="round"/>
</svg>
