<svg width="27" height="24" viewBox="0 0 27 24" fill="none" xmlns="http://www.w3.org/2000/svg">
<path d="M19.5 1.10381e-05C18.3358 -0.00198851 17.1873 0.2677 16.1457 0.787624C15.1041 1.30755 14.1982 2.06336 13.5 2.99494C12.5545 1.73687 11.2372 0.808002 9.73471 0.339765C8.23219 -0.128472 6.62048 -0.112362 5.12762 0.385817C3.63477 0.883996 2.33637 1.83901 1.41616 3.11574C0.495954 4.39246 0.000531866 5.92623 0 7.50001C0.00796277 8.69295 0.216265 9.87608 0.616211 11H5.96484L7.66797 8.44532C7.75928 8.30834 7.883 8.19602 8.02815 8.11834C8.17329 8.04066 8.33537 8.00001 8.5 8.00001C8.66463 8.00001 8.82671 8.04066 8.97185 8.11834C9.117 8.19602 9.24072 8.30834 9.33203 8.44532L12.5 13.1972L13.668 11.4453C13.7593 11.3083 13.883 11.196 14.0281 11.1183C14.1733 11.0407 14.3354 11 14.5 11H17.5C17.7652 11 18.0196 11.1054 18.2071 11.2929C18.3946 11.4804 18.5 11.7348 18.5 12C18.5 12.2652 18.3946 12.5196 18.2071 12.7071C18.0196 12.8947 17.7652 13 17.5 13H15.0352L13.332 15.5547C13.2407 15.6917 13.117 15.804 12.9719 15.8817C12.8267 15.9594 12.6646 16 12.5 16C12.3354 16 12.1733 15.9594 12.0281 15.8817C11.883 15.804 11.7593 15.6917 11.668 15.5547L8.5 10.8028L7.33203 12.5547C7.24072 12.6917 7.117 12.804 6.97185 12.8817C6.82671 12.9594 6.66463 13 6.5 13H1.49799C4.82935 19.2263 12.5947 23.6392 13.0114 23.8725C13.1606 23.9561 13.3289 24 13.5 24C13.6711 24 13.8394 23.9561 13.9886 23.8725C16.284 22.5282 18.4382 20.9563 20.4189 19.1808C24.7858 15.2506 27 11.3206 27 7.50001C26.9977 5.51158 26.2068 3.60523 24.8008 2.1992C23.3948 0.793165 21.4884 0.00226474 19.5 1.10381e-05Z" fill="white"/>
</svg>
