<svg width="10" height="13" viewBox="0 0 10 13" fill="none" xmlns="http://www.w3.org/2000/svg">
<path fill-rule="evenodd" clip-rule="evenodd" d="M3.0625 0H6.91875C8.6125 0 9.98125 0.66875 10 2.36875V11.8562C10 11.9625 9.975 12.0687 9.925 12.1625C9.84375 12.3125 9.70625 12.425 9.5375 12.475C9.375 12.525 9.19375 12.5 9.04375 12.4125L4.99375 10.3875L0.9375 12.4125C0.844375 12.4619 0.7375 12.4937 0.63125 12.4937C0.28125 12.4937 0 12.2062 0 11.8562V2.36875C0 0.66875 1.375 0 3.0625 0ZM2.6375 4.7625H7.34375C7.6125 4.7625 7.83125 4.54312 7.83125 4.26875C7.83125 3.99375 7.6125 3.775 7.34375 3.775H2.6375C2.36875 3.775 2.15 3.99375 2.15 4.26875C2.15 4.54312 2.36875 4.7625 2.6375 4.7625Z" fill="#227DDE"/>
</svg>
