<svg width="32" height="30" viewBox="0 0 32 30" fill="none" xmlns="http://www.w3.org/2000/svg">
<path d="M30.8856 12.4609C30.1774 11.9079 29.2713 11.7156 28.3997 11.9338L27.3173 12.2043C27.1294 11.3589 26.8493 10.5451 26.4844 9.77419L28.4263 8.65306C28.8746 8.39419 29.0282 7.82088 28.7694 7.37244C28.5105 6.92406 27.9373 6.77025 27.4888 7.02931L25.5457 8.15106C25.0605 7.45119 24.4957 6.80212 23.8571 6.21575L24.6343 5.412C25.2588 4.766 25.5454 3.88519 25.4207 2.99544C25.2959 2.10556 24.7781 1.33763 24 0.888438C23.2219 0.439125 22.2979 0.374688 21.4649 0.711563C20.6319 1.04844 20.0125 1.737 19.7654 2.60087L19.4608 3.66556C18.6398 3.40819 17.7961 3.24475 16.9374 3.17588V0.9375C16.9374 0.41975 16.5177 0 15.9999 0C15.4822 0 15.0624 0.41975 15.0624 0.9375V3.17588C14.2037 3.24475 13.3602 3.40825 12.5391 3.66556L12.2345 2.60087C11.9874 1.73706 11.3679 1.04838 10.535 0.711563C9.70212 0.374688 8.77806 0.43925 7.99988 0.888438C7.22175 1.33769 6.70394 2.10563 6.57919 2.99538C6.45444 3.88513 6.74106 4.76594 7.36562 5.41194L8.14281 6.21569C7.50419 6.80212 6.93937 7.45112 6.45412 8.151L4.51119 7.02925C4.06275 6.77025 3.48937 6.924 3.23056 7.37238C2.97169 7.82081 3.12531 8.39419 3.57369 8.653L5.51556 9.77412C5.15056 10.5451 4.8705 11.3588 4.68262 12.2043L3.60019 11.9337C2.72837 11.7156 1.82244 11.9079 1.11425 12.4609C0.406187 13.0139 0 13.8463 0 14.7448C0 15.6433 0.406187 16.4757 1.11437 17.0287C1.82256 17.5817 2.72875 17.7739 3.60031 17.5559L4.68269 17.2853C4.87056 18.1308 5.15069 18.9445 5.51569 19.7154L3.57375 20.8366C3.12538 21.0954 2.97175 21.6688 3.23062 22.1172C3.40425 22.4179 3.71938 22.5861 4.04338 22.5861C4.20237 22.5861 4.36363 22.5456 4.51125 22.4603L6.45419 21.3386C6.93937 22.0384 7.50419 22.6875 8.14281 23.2739L7.36556 24.0776C6.741 24.7236 6.45437 25.6044 6.57919 26.4942C6.704 27.3839 7.22181 28.1519 7.99994 28.6011C8.44862 28.8602 8.94581 28.9913 9.44613 28.9913C9.81338 28.9912 10.1824 28.9206 10.5351 28.778C11.368 28.4411 11.9874 27.7526 12.2346 26.8887L12.5392 25.824C13.3602 26.0814 14.2038 26.2448 15.0625 26.3137V28.5521C15.0625 29.0698 15.4823 29.4896 16 29.4896C16.5177 29.4896 16.9375 29.0698 16.9375 28.5521V26.3137C17.7962 26.2448 18.6397 26.0813 19.4608 25.824L19.7654 26.8887C20.0126 27.7525 20.6319 28.4412 21.4649 28.778C22.2979 29.1148 23.2219 29.0503 24.0001 28.6011C24.7782 28.1519 25.296 27.3839 25.4207 26.4942C25.5455 25.6044 25.2589 24.7236 24.6343 24.0776L23.8571 23.2739C24.4957 22.6874 25.0605 22.0384 25.5457 21.3386L27.4886 22.4603C27.6362 22.5456 27.7974 22.5861 27.9565 22.5861C28.2805 22.5861 28.5957 22.4179 28.7693 22.1172C29.0281 21.6688 28.8745 21.0954 28.4261 20.8366L26.4842 19.7154C26.8492 18.9445 27.1293 18.1308 27.3172 17.2853L28.3996 17.5559C29.2713 17.7739 30.1773 17.5816 30.8856 17.0287C31.5938 16.4757 32 15.6433 32 14.7448C32 13.8463 31.5938 13.0139 30.8856 12.4609ZM29.7318 15.5508C29.4819 15.7459 29.1621 15.8138 28.8544 15.7369L26.7964 15.2224C26.5369 15.1575 26.2621 15.2066 26.0411 15.3572C25.8201 15.5078 25.6739 15.7457 25.6394 16.0109C25.3048 18.5819 23.9818 20.8722 21.914 22.4599C21.7021 22.6227 21.5697 22.8681 21.55 23.1345C21.5304 23.401 21.6253 23.6631 21.811 23.8552L23.2864 25.3811C23.5068 25.6091 23.608 25.9199 23.5639 26.2339C23.5199 26.5479 23.3371 26.8189 23.0625 26.9775C22.7879 27.136 22.4618 27.1588 22.1679 27.0399C21.8739 26.9211 21.6553 26.678 21.5681 26.3732L20.9872 24.3425C20.9137 24.0854 20.7339 23.8721 20.4932 23.7559C20.2523 23.6397 19.9734 23.6319 19.7265 23.7344C18.54 24.2269 17.2863 24.4766 16.0001 24.4766C14.7139 24.4766 13.4602 24.2269 12.2736 23.7344C12.0268 23.6318 11.7477 23.6396 11.5069 23.7559C11.2661 23.872 11.0864 24.0854 11.0129 24.3425L10.432 26.3732C10.3448 26.678 10.1262 26.9211 9.83225 27.0399C9.53831 27.1588 9.21219 27.1361 8.93756 26.9775C8.66294 26.8189 8.48025 26.5479 8.43619 26.2339C8.39213 25.92 8.49331 25.6091 8.71369 25.3811L10.1892 23.8552C10.3749 23.6631 10.4698 23.4009 10.4502 23.1345C10.4305 22.8681 10.2981 22.6227 10.0862 22.4599C8.01844 20.8722 6.69544 18.5819 6.36081 16.0109C6.32631 15.7457 6.18013 15.5078 5.95913 15.3572C5.802 15.2501 5.61775 15.1944 5.43113 15.1944C5.35519 15.1944 5.27881 15.2036 5.20375 15.2224L3.14569 15.7369C2.838 15.8137 2.51825 15.7461 2.26837 15.5508C2.01831 15.3556 1.875 15.0619 1.875 14.7448C1.875 14.4277 2.01831 14.134 2.26825 13.9388C2.51819 13.7437 2.83787 13.6758 3.14556 13.7527L5.20363 14.2672C5.46313 14.3322 5.738 14.2831 5.95894 14.1324C6.17994 13.9818 6.32612 13.7439 6.36062 13.4787C6.69525 10.9076 8.01831 8.61737 10.0861 7.02969C10.2979 6.86694 10.4304 6.62162 10.4501 6.35512C10.4698 6.08869 10.3748 5.8265 10.1891 5.63444L8.71369 4.10856C8.49325 3.88063 8.39206 3.56975 8.43612 3.25569C8.48019 2.94175 8.66288 2.67075 8.9375 2.51219C9.21212 2.35363 9.53813 2.33087 9.83212 2.44981C10.1261 2.56862 10.3447 2.81169 10.4319 3.1165L11.0127 5.14719C11.0862 5.40425 11.2661 5.61762 11.5068 5.73381C11.7477 5.84994 12.0266 5.85775 12.2735 5.75525C13.46 5.26275 14.7137 5.01306 15.9999 5.01306C17.2861 5.01306 18.5398 5.26275 19.7264 5.75525C19.9732 5.85775 20.2522 5.85 20.4931 5.73381C20.7339 5.61769 20.9136 5.40431 20.9871 5.14719L21.568 3.1165C21.6553 2.81169 21.8738 2.56862 22.1677 2.44981C22.4618 2.331 22.7878 2.35369 23.0624 2.51219C23.3371 2.67075 23.5198 2.94175 23.5638 3.25569C23.6079 3.56969 23.5067 3.88056 23.2863 4.10856L21.8109 5.6345C21.6251 5.82656 21.5302 6.08881 21.5499 6.35519C21.5695 6.62169 21.702 6.867 21.9139 7.02975C23.9816 8.61738 25.3047 10.9077 25.6393 13.4788C25.6738 13.744 25.82 13.9819 26.041 14.1325C26.2621 14.2831 26.5369 14.3322 26.7963 14.2673L28.8544 13.7528C29.1619 13.6759 29.4818 13.7436 29.7317 13.9389C29.9817 14.134 30.125 14.4277 30.125 14.7448C30.125 15.0619 29.9817 15.3556 29.7318 15.5508Z" fill="#227DDE"/>
<mask id="path-2-inside-1_16_2988" fill="white">
<path d="M20.375 14.4322C18.8242 14.4322 17.5625 15.6939 17.5625 17.2447C17.5625 18.7955 18.8242 20.0572 20.375 20.0572C21.9258 20.0572 23.1875 18.7955 23.1875 17.2447C23.1875 15.6939 21.9258 14.4322 20.375 14.4322ZM20.375 18.1822C19.8581 18.1822 19.4375 17.7616 19.4375 17.2447C19.4375 16.7278 19.8581 16.3072 20.375 16.3072C20.8919 16.3072 21.3125 16.7278 21.3125 17.2447C21.3125 17.7616 20.8919 18.1822 20.375 18.1822Z"/>
</mask>
<path d="M20.375 14.4322C18.8242 14.4322 17.5625 15.6939 17.5625 17.2447C17.5625 18.7955 18.8242 20.0572 20.375 20.0572C21.9258 20.0572 23.1875 18.7955 23.1875 17.2447C23.1875 15.6939 21.9258 14.4322 20.375 14.4322ZM20.375 18.1822C19.8581 18.1822 19.4375 17.7616 19.4375 17.2447C19.4375 16.7278 19.8581 16.3072 20.375 16.3072C20.8919 16.3072 21.3125 16.7278 21.3125 17.2447C21.3125 17.7616 20.8919 18.1822 20.375 18.1822Z" fill="#227DDE"/>
<path d="M20.375 12.4322C17.7196 12.4322 15.5625 14.5893 15.5625 17.2447H19.5625C19.5625 16.7984 19.9288 16.4322 20.375 16.4322V12.4322ZM15.5625 17.2447C15.5625 19.9001 17.7196 22.0572 20.375 22.0572V18.0572C19.9288 18.0572 19.5625 17.6909 19.5625 17.2447H15.5625ZM20.375 22.0572C23.0304 22.0572 25.1875 19.9001 25.1875 17.2447H21.1875C21.1875 17.6909 20.8212 18.0572 20.375 18.0572V22.0572ZM25.1875 17.2447C25.1875 14.5893 23.0304 12.4322 20.375 12.4322V16.4322C20.8212 16.4322 21.1875 16.7984 21.1875 17.2447H25.1875ZM20.375 16.1822C20.9626 16.1822 21.4375 16.6571 21.4375 17.2447H17.4375C17.4375 18.8662 18.7535 20.1822 20.375 20.1822V16.1822ZM21.4375 17.2447C21.4375 17.8323 20.9626 18.3072 20.375 18.3072V14.3072C18.7535 14.3072 17.4375 15.6232 17.4375 17.2447H21.4375ZM20.375 18.3072C19.7874 18.3072 19.3125 17.8323 19.3125 17.2447H23.3125C23.3125 15.6232 21.9965 14.3072 20.375 14.3072V18.3072ZM19.3125 17.2447C19.3125 16.6571 19.7874 16.1822 20.375 16.1822V20.1822C21.9965 20.1822 23.3125 18.8662 23.3125 17.2447H19.3125Z" fill="#227DDE" mask="url(#path-2-inside-1_16_2988)"/>
<mask id="path-4-inside-2_16_2988" fill="white">
<path d="M12.25 9.43219C10.3546 9.43219 8.8125 10.9743 8.8125 12.8697C8.8125 14.7651 10.3546 16.3072 12.25 16.3072C14.1454 16.3072 15.6875 14.7651 15.6875 12.8697C15.6875 10.9743 14.1454 9.43219 12.25 9.43219ZM12.25 14.4322C11.3884 14.4322 10.6875 13.7313 10.6875 12.8697C10.6875 12.0081 11.3884 11.3072 12.25 11.3072C13.1116 11.3072 13.8125 12.0081 13.8125 12.8697C13.8125 13.7313 13.1116 14.4322 12.25 14.4322Z"/>
</mask>
<path d="M12.25 9.43219C10.3546 9.43219 8.8125 10.9743 8.8125 12.8697C8.8125 14.7651 10.3546 16.3072 12.25 16.3072C14.1454 16.3072 15.6875 14.7651 15.6875 12.8697C15.6875 10.9743 14.1454 9.43219 12.25 9.43219ZM12.25 14.4322C11.3884 14.4322 10.6875 13.7313 10.6875 12.8697C10.6875 12.0081 11.3884 11.3072 12.25 11.3072C13.1116 11.3072 13.8125 12.0081 13.8125 12.8697C13.8125 13.7313 13.1116 14.4322 12.25 14.4322Z" fill="#227DDE"/>
<path d="M12.25 7.43219C9.24999 7.43219 6.8125 9.86968 6.8125 12.8697H10.8125C10.8125 12.0788 11.4591 11.4322 12.25 11.4322V7.43219ZM6.8125 12.8697C6.8125 15.8697 9.24999 18.3072 12.25 18.3072V14.3072C11.4591 14.3072 10.8125 13.6606 10.8125 12.8697H6.8125ZM12.25 18.3072C15.25 18.3072 17.6875 15.8697 17.6875 12.8697H13.6875C13.6875 13.6606 13.0409 14.3072 12.25 14.3072V18.3072ZM17.6875 12.8697C17.6875 9.86968 15.25 7.43219 12.25 7.43219V11.4322C13.0409 11.4322 13.6875 12.0788 13.6875 12.8697H17.6875ZM12.25 12.4322C12.493 12.4322 12.6875 12.6267 12.6875 12.8697H8.6875C8.6875 14.8358 10.2839 16.4322 12.25 16.4322V12.4322ZM12.6875 12.8697C12.6875 13.1127 12.493 13.3072 12.25 13.3072V9.30719C10.2839 9.30719 8.6875 10.9036 8.6875 12.8697H12.6875ZM12.25 13.3072C12.007 13.3072 11.8125 13.1127 11.8125 12.8697H15.8125C15.8125 10.9036 14.2161 9.30719 12.25 9.30719V13.3072ZM11.8125 12.8697C11.8125 12.6267 12.007 12.4322 12.25 12.4322V16.4322C14.2161 16.4322 15.8125 14.8358 15.8125 12.8697H11.8125Z" fill="#227DDE" mask="url(#path-4-inside-2_16_2988)"/>
</svg>
