<svg width="12" height="14" viewBox="0 0 12 14" fill="none" xmlns="http://www.w3.org/2000/svg">
<path fill-rule="evenodd" clip-rule="evenodd" d="M0 5.82241C0 2.60252 2.69071 0 5.9454 0C9.20926 0 11.9 2.60252 11.9 5.82241C11.9 7.44496 11.3099 8.95131 10.3386 10.2281C9.26714 11.6364 7.94649 12.8635 6.45996 13.8267C6.11974 14.0492 5.8127 14.066 5.4393 13.8267C3.9443 12.8635 2.62365 11.6364 1.56135 10.2281C0.589387 8.95131 0 7.44496 0 5.82241ZM3.98595 6.00369C3.98595 7.08236 4.86614 7.93073 5.94539 7.93073C7.02534 7.93073 7.91401 7.08236 7.91401 6.00369C7.91401 4.93342 7.02534 4.04375 5.94539 4.04375C4.86614 4.04375 3.98595 4.93342 3.98595 6.00369Z" fill="#3B4453"/>
</svg>
