<svg width="22" height="22" viewBox="0 0 22 22" fill="none" xmlns="http://www.w3.org/2000/svg">
<path fill-rule="evenodd" clip-rule="evenodd" d="M18.2358 18.2344C15.1085 21.362 10.4778 22.0377 6.68834 20.2852C6.12891 20.0599 5.67026 19.8779 5.23424 19.8779C4.01975 19.8851 2.50806 21.0627 1.72239 20.278C0.936726 19.4922 2.11523 17.9793 2.11523 16.7575C2.11523 16.3214 1.9404 15.871 1.71519 15.3104C-0.0381588 11.5215 0.638502 6.8893 3.76574 3.76274C7.75783 -0.230815 14.2437 -0.230815 18.2358 3.76172C22.2351 7.76145 22.2279 14.2419 18.2358 18.2344Z" stroke="#227DDE" stroke-width="1.5" stroke-linecap="round" stroke-linejoin="round"/>
<path d="M15.0309 11.4226H15.0401" stroke="#227DDE" stroke-width="2" stroke-linecap="round" stroke-linejoin="round"/>
<path d="M10.9288 11.4226H10.938" stroke="#227DDE" stroke-width="2" stroke-linecap="round" stroke-linejoin="round"/>
<path d="M6.82647 11.4226H6.83568" stroke="#227DDE" stroke-width="2" stroke-linecap="round" stroke-linejoin="round"/>
</svg>
