<svg width="29" height="29" viewBox="0 0 29 29" fill="none" xmlns="http://www.w3.org/2000/svg">
<path d="M10.4486 27.9753H18.5379C25.2789 27.9753 27.9753 25.2789 27.9753 18.5379V10.4486C27.9753 3.70757 25.2789 1.01116 18.5379 1.01116H10.4486C3.70757 1.01116 1.01116 3.70757 1.01116 10.4486V18.5379C1.01116 25.2789 3.70757 27.9753 10.4486 27.9753Z" stroke="#227DDE" stroke-width="2" stroke-linecap="round" stroke-linejoin="round"/>
<path d="M1.01116 15.437L9.1004 15.41C10.1116 15.41 11.2441 16.1785 11.6215 17.1222L13.1585 21.0051C13.509 21.8814 14.0618 21.8814 14.4123 21.0051L17.4997 13.172C17.7963 12.417 18.3491 12.39 18.7266 13.1046L20.1287 15.7605C20.5467 16.556 21.6253 17.2031 22.5151 17.2031H27.9888" stroke="#227DDE" stroke-width="2" stroke-linecap="round" stroke-linejoin="round"/>
</svg>
