<svg width="21" height="20" viewBox="0 0 21 20" fill="none" xmlns="http://www.w3.org/2000/svg">
<mask id="mask0_1_2016" style="mask-type:alpha" maskUnits="userSpaceOnUse" x="0" y="0" width="21" height="20">
<path fill-rule="evenodd" clip-rule="evenodd" d="M0 0H20.9964V20H0V0Z" fill="white"/>
</mask>
<g mask="url(#mask0_1_2016)">
<path fill-rule="evenodd" clip-rule="evenodd" d="M1.87038 9.35657C3.30826 13.8302 8.989 17.4475 10.4987 18.3428C12.0135 17.4382 17.7352 13.781 19.127 9.36068C20.0408 6.50338 19.1926 2.88408 15.8225 1.79798C14.1898 1.2739 12.2852 1.59286 10.9704 2.61025C10.6956 2.82152 10.3141 2.82562 10.0372 2.6164C8.6444 1.56927 6.825 1.26262 5.16663 1.79798C1.80167 2.88305 0.95658 6.50236 1.87038 9.35657ZM10.4997 20.0001C10.3725 20.0001 10.2464 19.9694 10.1315 19.9068C9.8105 19.7314 2.24882 15.5634 0.405839 9.8263C0.404813 9.8263 0.404813 9.82527 0.404813 9.82527C-0.752052 6.21314 0.536089 1.67388 4.69485 0.333438C6.64758 -0.298325 8.77568 -0.0203907 10.4966 1.06571C12.1642 0.0114026 14.3795 -0.279865 16.2932 0.333438C20.4561 1.67593 21.7484 6.21417 20.5925 9.82527C18.809 15.4968 11.192 19.7273 10.8689 19.9048C10.754 19.9684 10.6269 20.0001 10.4997 20.0001Z" fill="#227DDE"/>
</g>
<path fill-rule="evenodd" clip-rule="evenodd" d="M16.5671 7.82014C16.1702 7.82014 15.8338 7.51554 15.8009 7.11351C15.7333 6.27048 15.1692 5.55872 14.3661 5.29924C13.961 5.16797 13.7395 4.73414 13.8698 4.33109C14.0021 3.927 14.4318 3.70753 14.8379 3.8347C16.2358 4.28698 17.2152 5.52487 17.3352 6.98839C17.3691 7.41196 17.0542 7.78322 16.6306 7.81706C16.6091 7.81912 16.5886 7.82014 16.5671 7.82014Z" fill="#227DDE"/>
</svg>
