<svg width="22" height="22" viewBox="0 0 22 22" fill="none" xmlns="http://www.w3.org/2000/svg">
<path d="M13.5889 8.41108L8.41121 13.5888C7.74609 12.9236 7.33679 12.0129 7.33679 10.9999C7.33679 8.97387 8.974 7.33666 11 7.33666C12.0131 7.33666 12.9238 7.74597 13.5889 8.41108Z" stroke="#A1A8B0" stroke-width="1.5" stroke-linecap="round" stroke-linejoin="round"/>
<path d="M16.9553 4.6251C15.1646 3.2744 13.1181 2.53765 11 2.53765C7.38787 2.53765 4.02136 4.66603 1.6781 8.34975C0.757174 9.79254 0.757174 12.2177 1.6781 13.6604C2.48648 14.9293 3.42787 16.0242 4.45113 16.9042" stroke="#A1A8B0" stroke-width="1.5" stroke-linecap="round" stroke-linejoin="round"/>
<path d="M7.33679 18.705C8.5033 19.1962 9.74144 19.4623 11 19.4623C14.6121 19.4623 17.9787 17.3339 20.3219 13.6502C21.2428 12.2074 21.2428 9.78226 20.3219 8.33946C19.9842 7.80737 19.6159 7.30598 19.2373 6.83528" stroke="#A1A8B0" stroke-width="1.5" stroke-linecap="round" stroke-linejoin="round"/>
<path d="M14.5916 11.7162C14.3255 13.159 13.1488 14.3358 11.706 14.6018" stroke="#A1A8B0" stroke-width="1.5" stroke-linecap="round" stroke-linejoin="round"/>
<path d="M8.41116 13.5889L0.767442 21.2326" stroke="#A1A8B0" stroke-width="1.5" stroke-linecap="round" stroke-linejoin="round"/>
<path d="M21.2326 0.767442L13.5889 8.41116" stroke="#A1A8B0" stroke-width="1.5" stroke-linecap="round" stroke-linejoin="round"/>
</svg>
