<svg width="10" height="13" viewBox="0 0 10 13" fill="none" xmlns="http://www.w3.org/2000/svg">
<path fill-rule="evenodd" clip-rule="evenodd" d="M3.0625 0H6.91875C8.6125 0 9.98125 0.684375 10 2.42409V12.1333C10 12.242 9.975 12.3507 9.925 12.4467C9.84375 12.6002 9.70625 12.7153 9.5375 12.7665C9.375 12.8176 9.19375 12.7921 9.04375 12.7025L4.99375 10.6302L0.9375 12.7025C0.844375 12.753 0.7375 12.7857 0.63125 12.7857C0.28125 12.7857 0 12.4914 0 12.1333V2.42409C0 0.684375 1.375 0 3.0625 0ZM2.6375 4.87377H7.34375C7.6125 4.87377 7.83125 4.64927 7.83125 4.36848C7.83125 4.08706 7.6125 3.8632 7.34375 3.8632H2.6375C2.36875 3.8632 2.15 4.08706 2.15 4.36848C2.15 4.64927 2.36875 4.87377 2.6375 4.87377Z" fill="white"/>
</svg>
