<svg width="32" height="33" viewBox="0 0 32 33" fill="none" xmlns="http://www.w3.org/2000/svg">
<path d="M31.7298 6.86277L25.1507 0.270793C24.7903 -0.0902642 24.2058 -0.0902642 23.8452 0.270793C23.4846 0.632094 23.4846 1.21771 23.8452 1.57877L24.8372 2.5729L19.2896 8.13136L16.1045 4.94007C15.7442 4.57901 15.1597 4.57901 14.7991 4.94007C14.4385 5.30137 14.4385 5.88699 14.7991 6.24804L16.3394 7.79134L7.31885 16.8297C6.79566 17.3537 6.50757 18.0506 6.50757 18.7916C6.50757 19.1025 6.55884 19.4051 6.65625 19.6908L4.7041 21.6465C3.8645 22.488 3.8645 23.8571 4.7041 24.6986L5.37427 25.3699L0.270264 30.4839C-0.090088 30.8449 -0.090088 31.4305 0.270264 31.7918C0.450684 31.9724 0.686768 32.0626 0.923096 32.0626C1.15918 32.0626 1.39551 31.9724 1.57568 31.7916L6.67969 26.6778L7.34961 27.3491C7.76954 27.7698 8.32105 27.9802 8.87257 27.9802C9.42432 27.9802 9.97584 27.7698 10.3958 27.3491L12.3477 25.3933C12.6328 25.4907 12.9348 25.5421 13.2451 25.5421C13.9846 25.5421 14.6802 25.2534 15.2031 24.7295L24.2236 15.6913L25.7639 17.2346C25.9444 17.4151 26.1804 17.5056 26.4168 17.5056C26.6529 17.5056 26.8892 17.4154 27.0694 17.2346C27.43 16.8733 27.43 16.2879 27.0694 15.9266L23.8843 12.7353L29.4321 7.17686L30.4241 8.17074C30.6043 8.35127 30.8406 8.44178 31.0767 8.44178C31.313 8.44178 31.5493 8.35152 31.7295 8.17074C32.0901 7.80944 32.0901 7.22407 31.7298 6.86277ZM9.09034 26.0411C9.01197 26.1196 8.92042 26.1314 8.87281 26.1314C8.8252 26.1314 8.73365 26.1196 8.65528 26.0411L6.00977 23.3907C5.88965 23.2703 5.88965 23.0749 6.00977 22.9545L7.76246 21.1984L10.843 24.285L9.09034 26.0411ZM13.8977 23.4215C13.5379 23.782 12.9526 23.7823 12.5925 23.4217L8.62427 19.4457C8.44971 19.271 8.35377 19.0387 8.35377 18.7916C8.35377 18.5445 8.44971 18.3124 8.62427 18.1377L11.0657 15.6913L12.606 17.2346C12.7861 17.4151 13.0225 17.5056 13.2588 17.5056C13.4949 17.5056 13.7312 17.4151 13.9114 17.2346C14.2717 16.8735 14.2717 16.2879 13.9114 15.9266L12.3711 14.3833L14.3552 12.3953L15.8955 13.9386C16.0757 14.1191 16.312 14.2096 16.5481 14.2096C16.7844 14.2096 17.0208 14.1194 17.2009 13.9386C17.5613 13.5775 17.5613 12.9919 17.2009 12.6306L15.6607 11.0873L17.6445 9.09931L22.9182 14.3833L13.8977 23.4215ZM22.5791 11.4273L20.595 9.43933L26.1426 3.88087L28.1267 5.86888L22.5791 11.4273Z" fill="#227DDE"/>
</svg>
