<svg width="15" height="16" viewBox="0 0 15 16" fill="none" xmlns="http://www.w3.org/2000/svg">
<path d="M12.9368 6.02357C12.9368 6.02357 12.513 11.2803 12.2671 13.4946C12.15 14.5522 11.4967 15.172 10.4266 15.1915C8.39029 15.2282 6.35159 15.2305 4.31601 15.1876C3.28652 15.1665 2.64416 14.539 2.52942 13.5001C2.282 11.2663 1.86052 6.02357 1.86052 6.02357" stroke="#ADADAD" stroke-width="1.5" stroke-linecap="round" stroke-linejoin="round"/>
<path d="M14.0164 3.50367H0.780513" stroke="#ADADAD" stroke-width="1.5" stroke-linecap="round" stroke-linejoin="round"/>
<path d="M11.466 3.50372C10.8533 3.50372 10.3257 3.07054 10.2055 2.47032L10.0158 1.52122C9.89875 1.08335 9.50225 0.780513 9.05033 0.780513H5.74642C5.2945 0.780513 4.898 1.08335 4.78092 1.52122L4.59126 2.47032C4.47106 3.07054 3.94343 3.50372 3.33073 3.50372" stroke="#ADADAD" stroke-width="1.5" stroke-linecap="round" stroke-linejoin="round"/>
</svg>
