<svg width="12" height="14" viewBox="0 0 12 14" fill="none" xmlns="http://www.w3.org/2000/svg">
<path fill-rule="evenodd" clip-rule="evenodd" d="M0 5.82243C0 2.60252 2.69072 0 5.94541 0C9.20928 0 11.9 2.60252 11.9 5.82243C11.9 7.44498 11.3099 8.95134 10.3387 10.2281C9.26716 11.6365 7.94651 12.8635 6.45998 13.8267C6.11976 14.0493 5.81271 14.0661 5.43932 13.8267C3.94432 12.8635 2.62366 11.6365 1.56135 10.2281C0.589389 8.95134 0 7.44498 0 5.82243ZM3.98596 6.00372C3.98596 7.08239 4.86616 7.93076 5.94541 7.93076C7.02537 7.93076 7.91404 7.08239 7.91404 6.00372C7.91404 4.93345 7.02537 4.04377 5.94541 4.04377C4.86616 4.04377 3.98596 4.93345 3.98596 6.00372Z" fill="#ADADAD"/>
</svg>
