<svg width="23" height="28" viewBox="0 0 23 28" fill="none" xmlns="http://www.w3.org/2000/svg">
<path d="M20.141 6.96659C18.5067 4.36393 16.4023 2.13212 14.5593 0.292399C14.4461 0.179326 14.3074 0.0950773 14.1549 0.0467308C14.0023 -0.00161565 13.8404 -0.0126475 13.6828 0.0145623C13.5251 0.0417721 13.3762 0.106429 13.2487 0.2031C13.1212 0.29977 13.0188 0.425632 12.95 0.570109L9.09369 8.66838L5.0592 5.97868C4.94978 5.90572 4.82704 5.85506 4.69801 5.82961C4.56897 5.80416 4.43619 5.80442 4.30726 5.83036C4.17833 5.85631 4.05578 5.90743 3.94663 5.98081C3.83749 6.05418 3.74389 6.14837 3.6712 6.25798C1.23517 9.93022 0 13.2554 0 16.141C0 19.191 1.2116 22.1161 3.36827 24.2728C5.52494 26.4294 8.45001 27.641 11.5 27.641C14.55 27.641 17.4751 26.4294 19.6317 24.2728C21.7884 22.1161 23 19.191 23 16.141C23 13.0313 22.0648 10.0303 20.141 6.96659ZM18.9118 17.2936C18.6731 18.8683 17.9368 20.3253 16.8106 21.4516C15.6844 22.5778 14.2274 23.3141 12.6527 23.5529C12.6018 23.5607 12.5504 23.5647 12.4988 23.5647C12.247 23.5644 12.0045 23.4691 11.8199 23.2977C11.6353 23.1264 11.5221 22.8917 11.503 22.6406C11.4838 22.3895 11.5602 22.1404 11.7167 21.9431C11.8733 21.7458 12.0985 21.6148 12.3474 21.5763C13.4974 21.391 14.5596 20.848 15.3833 20.0243C16.2069 19.2007 16.7499 18.1384 16.9352 16.9884C16.9553 16.8587 17.0007 16.7341 17.0689 16.6219C17.137 16.5096 17.2267 16.4119 17.3326 16.3343C17.4385 16.2567 17.5587 16.2007 17.6863 16.1696C17.8139 16.1384 17.9463 16.1327 18.0761 16.1528C18.2059 16.1728 18.3305 16.2182 18.4427 16.2864C18.5549 16.3545 18.6526 16.4442 18.7302 16.5501C18.8078 16.656 18.8638 16.7762 18.895 16.9038C18.9261 17.0314 18.9318 17.1638 18.9118 17.2936H18.9118Z" fill="white"/>
</svg>
