<svg width="19" height="19" viewBox="0 0 19 19" fill="none" xmlns="http://www.w3.org/2000/svg">
<path d="M5.65175 9.56389C6.46304 11.2225 7.8075 12.5609 9.4698 13.3646C9.59142 13.4222 9.72595 13.4472 9.86016 13.437C9.99436 13.4269 10.1236 13.382 10.2352 13.3067L12.6828 11.6746C12.791 11.6024 12.9156 11.5583 13.0451 11.5464C13.1747 11.5345 13.3052 11.5551 13.4248 11.6064L18.0038 13.5688C18.1594 13.6349 18.2892 13.7497 18.3738 13.896C18.4584 14.0423 18.4932 14.2122 18.4729 14.38C18.3282 15.5125 17.7756 16.5534 16.9187 17.3078C16.0617 18.0623 14.9592 18.4785 13.8174 18.4786C10.2911 18.4786 6.90922 17.0777 4.41573 14.5842C1.92224 12.0907 0.521413 8.70885 0.521413 5.18253C0.521473 4.0408 0.937689 2.93825 1.69213 2.0813C2.44657 1.22436 3.4875 0.67179 4.62001 0.52706C4.78779 0.506756 4.95762 0.541528 5.10392 0.626137C5.25022 0.710746 5.36506 0.840609 5.43114 0.996158L7.39528 5.57917C7.44609 5.69771 7.46679 5.82698 7.45554 5.95546C7.4443 6.08394 7.40145 6.20765 7.33083 6.31556L5.70437 8.80072C5.63034 8.91251 5.58658 9.0416 5.57736 9.17536C5.56814 9.30912 5.59377 9.44299 5.65175 9.56389V9.56389Z" stroke="white" stroke-linecap="round" stroke-linejoin="round"/>
</svg>
