<svg width="13" height="11" viewBox="0 0 13 11" fill="none" xmlns="http://www.w3.org/2000/svg">
<path d="M10.9683 10.4928H1.45821C1.20599 10.4928 0.964097 10.3926 0.785749 10.2143C0.6074 10.0359 0.507205 9.79401 0.507205 9.54179V2.88473C0.507205 2.6325 0.6074 2.39061 0.785749 2.21226C0.964097 2.03391 1.20599 1.93372 1.45821 1.93372H3.35988L4.31089 0.507205H8.11493L9.06593 1.93372H10.9683C11.2205 1.93372 11.4624 2.03391 11.6408 2.21226C11.8191 2.39061 11.9193 2.6325 11.9193 2.88473V9.54179C11.9193 9.79401 11.8191 10.0359 11.6408 10.2143C11.4624 10.3926 11.2205 10.4928 10.9683 10.4928Z" stroke="#227DDE" stroke-linecap="round" stroke-linejoin="round"/>
<path d="M6.21326 8.11527C7.39502 8.11527 8.35303 7.15727 8.35303 5.9755C8.35303 4.79374 7.39502 3.83573 6.21326 3.83573C5.03149 3.83573 4.07349 4.79374 4.07349 5.9755C4.07349 7.15727 5.03149 8.11527 6.21326 8.11527Z" stroke="#227DDE" stroke-linecap="round" stroke-linejoin="round"/>
</svg>
