<svg width="14" height="13" viewBox="0 0 14 13" fill="none" xmlns="http://www.w3.org/2000/svg">
<path d="M10.8911 8.08683C10.7139 8.25856 10.6325 8.50691 10.6729 8.75047L11.2811 12.1166C11.3324 12.4019 11.212 12.6906 10.9732 12.8555C10.7393 13.0265 10.428 13.047 10.1728 12.9102L7.1426 11.3298C7.03724 11.2737 6.92024 11.2436 6.80051 11.2401H6.61511C6.55079 11.2497 6.48785 11.2702 6.43038 11.3017L3.39953 12.8897C3.2497 12.9649 3.08003 12.9916 2.91377 12.9649C2.50875 12.8883 2.2385 12.5024 2.30487 12.0954L2.91377 8.72926C2.95414 8.48364 2.87272 8.23393 2.69553 8.05946L0.225005 5.66489C0.0183875 5.46443 -0.0534498 5.16339 0.0409649 4.89178C0.132643 4.62085 0.366627 4.42313 0.649188 4.37866L4.04949 3.88537C4.3081 3.85869 4.53524 3.70133 4.65155 3.46872L6.14987 0.396816C6.18545 0.328399 6.23129 0.265456 6.28671 0.212091L6.34828 0.1642C6.38044 0.128623 6.41738 0.0992039 6.45843 0.0752581L6.53301 0.0478915L6.64931 0H6.93735C7.19459 0.0266824 7.42105 0.18062 7.53941 0.410499L9.05757 3.46872C9.16704 3.69244 9.37982 3.84774 9.62543 3.88537L13.0257 4.37866C13.3131 4.41971 13.5532 4.61811 13.6483 4.89178C13.7379 5.16613 13.6606 5.46716 13.4499 5.66489L10.8911 8.08683Z" fill="#FBBC05"/>
</svg>
