<svg width="19" height="20" viewBox="0 0 19 20" fill="none" xmlns="http://www.w3.org/2000/svg">
<path fill-rule="evenodd" clip-rule="evenodd" d="M12.7735 15.0413H5.52078C5.10491 15.0413 4.76738 14.7038 4.76738 14.2879C4.76738 13.872 5.10491 13.5345 5.52078 13.5345H12.7735C13.1894 13.5345 13.5269 13.872 13.5269 14.2879C13.5269 14.7038 13.1894 15.0413 12.7735 15.0413Z" fill="#227DDE"/>
<path fill-rule="evenodd" clip-rule="evenodd" d="M12.7735 10.8361H5.52078C5.10491 10.8361 4.76738 10.4985 4.76738 10.0826C4.76738 9.66677 5.10491 9.32925 5.52078 9.32925H12.7735C13.1894 9.32925 13.5269 9.66677 13.5269 10.0826C13.5269 10.4985 13.1894 10.8361 12.7735 10.8361Z" fill="#227DDE"/>
<path fill-rule="evenodd" clip-rule="evenodd" d="M8.28792 6.6401H5.52042C5.10454 6.6401 4.76701 6.30257 4.76701 5.8867C4.76701 5.47082 5.10454 5.13329 5.52042 5.13329H8.28792C8.7038 5.13329 9.04132 5.47082 9.04132 5.8867C9.04132 6.30257 8.7038 6.6401 8.28792 6.6401Z" fill="#227DDE"/>
<mask id="mask0_1_2002" style="mask-type:alpha" maskUnits="userSpaceOnUse" x="0" y="0" width="19" height="21">
<path fill-rule="evenodd" clip-rule="evenodd" d="M0 0H18.2471V20.0001H0V0Z" fill="white"/>
</mask>
<g mask="url(#mask0_1_2002)">
<path fill-rule="evenodd" clip-rule="evenodd" d="M12.9673 1.50656L5.24344 1.51058C2.90488 1.52464 1.50656 2.97118 1.50656 5.38106V14.6188C1.50656 17.0447 2.91793 18.4933 5.2796 18.4933L13.0035 18.4903C15.342 18.4762 16.7404 17.0277 16.7404 14.6188V5.38106C16.7404 2.9551 15.33 1.50656 12.9673 1.50656ZM5.28061 20.0001C2.12234 20.0001 -0.000245248 17.8373 -0.000245248 14.6188V5.38106C-0.000245248 2.13339 2.05604 0.0228591 5.23842 0.0037729L12.9663 -0.000245248H12.9673C16.1256 -0.000245248 18.2472 2.16252 18.2472 5.38106V14.6188C18.2472 17.8654 16.1909 19.977 13.0085 19.9971L5.28061 20.0001Z" fill="#227DDE"/>
</g>
</svg>
