<svg width="32" height="20" viewBox="0 0 32 20" fill="none" xmlns="http://www.w3.org/2000/svg">
<path d="M31 9H30V5C29.9994 4.46975 29.7885 3.9614 29.4135 3.58646C29.0386 3.21151 28.5302 3.00061 28 3H26V2C25.9994 1.46975 25.7885 0.961398 25.4135 0.586456C25.0386 0.211515 24.5302 0.000606423 24 0H21C20.4698 0.000606423 19.9614 0.211515 19.5865 0.586456C19.2115 0.961398 19.0006 1.46975 19 2V9H13V2C12.9994 1.46975 12.7885 0.961398 12.4135 0.586456C12.0386 0.211515 11.5302 0.000606423 11 0H8C7.46975 0.000606423 6.9614 0.211515 6.58646 0.586456C6.21151 0.961398 6.00061 1.46975 6 2V3H4C3.46975 3.00061 2.9614 3.21151 2.58646 3.58646C2.21151 3.9614 2.00061 4.46975 2 5V9H1C0.734784 9 0.48043 9.10536 0.292893 9.29289C0.105357 9.48043 0 9.73478 0 10C0 10.2652 0.105357 10.5196 0.292893 10.7071C0.48043 10.8946 0.734784 11 1 11H2V15C2.00061 15.5302 2.21151 16.0386 2.58646 16.4135C2.9614 16.7885 3.46975 16.9994 4 17H6V18C6.00061 18.5302 6.21151 19.0386 6.58646 19.4135C6.9614 19.7885 7.46975 19.9994 8 20H11C11.5302 19.9994 12.0386 19.7885 12.4135 19.4135C12.7885 19.0386 12.9994 18.5302 13 18V11H19V18C19.0006 18.5302 19.2115 19.0386 19.5865 19.4135C19.9614 19.7885 20.4698 19.9994 21 20H24C24.5302 19.9994 25.0386 19.7885 25.4135 19.4135C25.7885 19.0386 25.9994 18.5302 26 18V17H28C28.5302 16.9994 29.0386 16.7885 29.4135 16.4135C29.7885 16.0386 29.9994 15.5302 30 15V11H31C31.2652 11 31.5196 10.8946 31.7071 10.7071C31.8946 10.5196 32 10.2652 32 10C32 9.73478 31.8946 9.48043 31.7071 9.29289C31.5196 9.10536 31.2652 9 31 9ZM4 15V5H6V15H4ZM28 15H26V5H28V15Z" fill="white"/>
</svg>
